<?xml version="1.0" encoding="UTF-8"?><!DOCTYPE svg PUBLIC "-//W3C//DTD SVG 1.1//EN" "http://www.w3.org/Graphics/SVG/1.1/DTD/svg11.dtd"><svg xmlns="http://www.w3.org/2000/svg" xmlns:xlink="http://www.w3.org/1999/xlink" version="1.1" x="0px" y="0px" width="512px" height="512px" viewBox="0 0 512 512" xml:space="preserve"><g id="social__x2C__media__x2C__social_media__x2C___github__x2C_"><g fill-rule="evenodd" clip-rule="evenodd" fill="#E2F0FC"><path d="M383.99 72.082c49.094 73.473-126.147 206.842-177.037 244.511-53.199 39.378-112.912 59.534-166.111 7.253-60.841-59.793 36.064-102.539 80.439-130.622 59.97-37.98 117.221-90.882 174.37-124.82 27.19-16.167 65.818-27.151 88.339 3.678z"/><path d="M420.004 97.419c55.455-4.353 93.057 57.876 55.609 109.742-19.496 27.099-110.297 120.157-136.973 142.696-57.508 47.253-200.019 127.514-272.813 76.736-40.784-28.447-38.784-73.681 2.462-102.748 61.457-43.315 121.325-38.653 186.374-99.534 44.271-41.45 103.625-118.394 165.341-126.892z"/><path d="M472.381 242.188c34.883 69.119-131.433 166.063-179.603 193.266-50.376 28.445-104.396 39.533-145.077-11.606-46.479-58.55 42.168-85.182 83.721-104.818 56.071-26.53 111.424-66.271 164.622-89.587 25.344-11.142 60.022-16.478 76.337 12.745z"/></g><path d="M181.695 334.057l1.136 1.318 1.115 1.318 1.136 1.318 1.126 1.308 1.136 1.308 1.137 1.297 1.125 1.276 1.147 1.286 1.125 1.297 1.094 1.223c.9 1.007 2.54.761 3.141-.461a1.888 1.888 0 0 0-.3-2.069l-1.072-1.211-1.136-1.276-1.125-1.286-1.125-1.297-1.136-1.286-1.125-1.286-1.136-1.308-1.125-1.318-1.093-1.297-1.136-1.319-1.115-1.318a1.867 1.867 0 0 0-1.158-.653c.021-.439-.139-.879-.44-1.244l-.621-.75-1.126-1.318-1.093-1.329-1.083-1.34-1.093-1.318-1.061-1.329-1.094-1.318-1.083-1.34-1.061-1.318-1.072-1.34-1.5-1.877c-.611-.782-1.736-.942-2.573-.354a1.893 1.893 0 0 0-.396 2.723l1.49 1.887 1.072 1.34 1.083 1.329 1.072 1.34 1.093 1.329 1.094 1.34 1.104 1.34 1.093 1.33 1.094 1.34 1.114 1.329.633.761c.311.375.729.579 1.168.644-.011.429.118.879.429 1.254l1.121 1.325zm-87.886-114.77c-1.983-2.337-2.808-5.252-2.562-8.104.268-2.83 1.598-5.585 3.956-7.557.225-.214.472-.408.729-.568l-.333-.719-.568-1.243-.568-1.254-.558-1.233-.557-1.244-.546-1.243-.547-1.243-.536-1.233-.525-1.233-.525-1.232-.515-1.222-.503-1.211-.515-1.222-.247-.579c-.579-1.468.761-2.969 2.315-2.551.558.161.986.557 1.211 1.093l.236.568.504 1.201.504 1.211.515 1.222.514 1.222.525 1.211.525 1.222.536 1.222.547 1.222.547 1.232.546 1.222.557 1.244.579 1.244.311.654a11.738 11.738 0 0 1 3.988-.408c2.84.236 5.574 1.533 7.546 3.881a10.945 10.945 0 0 1 2.551 8.093 11.18 11.18 0 0 1-3.955 7.589c-.161.129-.311.268-.493.407l.622 1.169.664 1.286.676 1.275.707 1.275.687 1.297.696 1.287.697 1.297.718 1.286.708 1.275.74 1.297.718 1.308.611 1.083c.332.558.311 1.254.011 1.833-.75 1.297-2.583 1.329-3.323.054l-.622-1.094-.729-1.308-.718-1.297-.719-1.308-.718-1.297-.708-1.297-.708-1.297-.697-1.286-.697-1.286-.686-1.297-.675-1.275-.654-1.233a11.184 11.184 0 0 1-4.245.461 10.954 10.954 0 0 1-7.545-3.869zm7.879.108a7.41 7.41 0 0 0 5.37-1.737c1.565-1.318 2.455-3.119 2.616-4.995a7.312 7.312 0 0 0-1.683-5.349 7.237 7.237 0 0 0-4.984-2.54 7.331 7.331 0 0 0-5.37 1.726 7.404 7.404 0 0 0-2.604 4.995 7.298 7.298 0 0 0 1.683 5.338 7.301 7.301 0 0 0 4.972 2.562zm55.46 77.638l-.997-1.33-.976-1.34-.975-1.329-.986-1.329-.954-1.34-.965-1.34-.965-1.318-.933-1.34-.943-1.34-.965-1.351c-.793-1.136-2.497-1.04-3.205.15a1.914 1.914 0 0 0 .075 2.036l.986 1.383.954 1.329.954 1.351.954 1.34.976 1.34.954 1.33.986 1.34.976 1.35.997 1.34.997 1.34 1.382 1.877c.869 1.146 2.626.942 3.237-.354a1.867 1.867 0 0 0-.171-1.929l-1.393-1.866zm-21.352-30.582l-.857-1.34-.868-1.308-.847-1.318-.847-1.329-.836-1.318-.836-1.318-.847-1.319-.804-1.318-.825-1.318-.804-1.308-.611-.997a1.95 1.95 0 0 0-1.404-.879c-1.565-.182-2.669 1.544-1.854 2.884l.622.997.815 1.329.825 1.329.836 1.318.825 1.329.847 1.329.857 1.329.836 1.318.857 1.34.868 1.329.868 1.329 1.115 1.684c.793 1.2 2.562 1.093 3.248-.161.333-.632.3-1.34-.075-1.94l-1.104-1.673zM85.513 167.16l-.396-1.168-.397-1.136-.365-1.147-.386-1.136-.343-1.136-.364-1.136-.365-1.136-.343-1.125-.332-1.125-.343-1.125-.333-1.115-.322-1.114-.3-1.104-.321-1.104-.365-1.33a1.862 1.862 0 0 0-.847-1.136c-1.458-.868-3.248.482-2.819 2.133l.375 1.383.321 1.115.311 1.104.322 1.147.343 1.136.332 1.136.343 1.125.365 1.158.354 1.147.354 1.136.386 1.168.375 1.158.375 1.157.396 1.169.386 1.146.268.782c.172.429.418.762.815.997 1.511.911 3.355-.579 2.787-2.251l-.267-.773zm-9.497-36.006l-.172-.997-.171-1.018-.171-1.008-.161-.997-.139-1.008-.139-.986-.14-.997-.128-.986-.107-.976-.118-.976-.107-.976-.096-.964-.097-.954-.085-.964-.086-.943-.075-.943-.064-.933-.064-.933-.011-.407a1.923 1.923 0 0 0-.525-1.201c-1.233-1.244-3.366-.311-3.269 1.436l.021.439.064.943.064.976.085.976.064.976.097.976.097.975.096.986.107 1.008.129.976.107 1.029.128.997.15 1.007.161 1.019.139 1.019.161 1.018.15 1.04.182 1.04.171 1.029.118.579c.085.536.396.986.857 1.286 1.404.826 3.151-.375 2.883-1.983l-.106-.58zM74.45 93.681l.107-.804.129-.783.118-.793.118-.761.14-.783.15-.761.139-.761.172-.74.161-.75.171-.739.183-.729.192-.718.183-.729.193-.718.214-.696.214-.697.225-.696.236-.676.225-.696.247-.665.247-.664.246-.676.258-.643.118-.225c.182-.45.204-.933.043-1.383-.579-1.629-2.84-1.661-3.538-.086l-.118.29-.29.696-.268.697-.269.708-.257.718-.257.718-.247.739-.214.74-.247.75-.214.75-.204.751-.204.761-.193.761-.204.772-.161.793-.193.782-.15.783-.16.793-.15.804-.15.814-.139.814-.14.826-.118.815-.096.847-.118.954a1.842 1.842 0 0 0 .514 1.532c1.115 1.137 3.044.461 3.237-1.104l.119-.932zm14.568-32.104l.472-.45.482-.439.482-.429.504-.429.493-.418.503-.396.515-.418.525-.386.525-.375.536-.364.525-.375.557-.354.536-.354.557-.354.568-.311.568-.333.579-.311.568-.311.579-.279.589-.311.6-.279.601-.279.622-.257.611-.258.622-.246.622-.247.622-.235.333-.118c.46-.15.825-.45 1.061-.879.825-1.522-.611-3.259-2.262-2.69l-.375.129-.687.257-.675.247-.676.279-.664.278-.654.279-.664.321-.654.3-.632.3-.632.344-.633.321-.632.343-.622.354-.611.375-.611.364-.601.375-.589.397-.589.396-.59.397-.568.45-.568.418-.568.439-.547.45-.547.439-.546.482-.536.474-.514.472-.525.493-.118.107c-.3.29-.504.665-.547 1.083-.3 1.779 1.833 2.873 3.162 1.64l.118-.118zm34.097-12.391l.771-.011.793.011.804.011.793.011.804.043.815.032.804.032.826.054.814.064.825.064.825.075.836.086.847.086.836.107.847.096.868.107.868.118.857.139.857.139.879.14.879.15.3.064a1.86 1.86 0 0 0 1.522-.386c1.286-1.007.793-3.044-.804-3.344l-.321-.053-.911-.161-.9-.15-.89-.149-.9-.118-.89-.129-.89-.128-.879-.107-.868-.097-.879-.097-.868-.086-.879-.085-.847-.064-.857-.054-.847-.054-.847-.032-.847-.054-.836-.032-.847-.021-.826-.011-.814.011h-.836l-.74.032a1.889 1.889 0 0 0-1.726 2.669 1.902 1.902 0 0 0 1.736 1.104l.743-.022zm36.778 6.538l.986.333.954.332.976.321.975.343.965.343.997.375.965.354.997.375.986.386.997.386.997.386.997.407 1.008.407 1.007.418 1.007.429 1.019.429.739.311c.429.193.922.204 1.372.054 1.63-.611 1.726-2.84.15-3.538l-.729-.3-1.04-.45-1.029-.429-1.018-.418-1.018-.418-1.029-.418-1.008-.396-1.019-.397-1.007-.386-.997-.375-1.008-.386-1.008-.364-1.007-.354-.986-.343-.986-.354-.997-.332-.965-.322-.976-.311c-1.061-.364-2.208.29-2.454 1.383-.204.965.311 1.908 1.243 2.219l.944.3zm34.569 15.007l1.061.557 1.062.579 1.072.579 1.083.589 1.072.601 1.083.601 1.072.589 1.094.622 1.082.632 1.083.611 1.093.654 1.083.632 1.115.654 1.2.718c1.147.697 2.647.021 2.884-1.308a1.9 1.9 0 0 0-.879-1.929l-1.254-.74-1.104-.654-1.104-.654-1.093-.643-1.104-.632-1.104-.633-1.093-.621-1.083-.611-1.093-.611-1.104-.6-1.083-.601-1.083-.568-1.072-.589-1.071-.579-1.126-.579c-1.254-.654-2.766.257-2.798 1.672a1.94 1.94 0 0 0 1.019 1.694l1.09.568zm31.782 19.165l1.125.761 1.126.761 1.136.782 1.126.772 1.125.772 1.137.804 1.136.804 1.115.804 1.136.804 1.147.826 1.136.825 1.147.836 1.114.814c.386.29.868.418 1.361.343 1.683-.225 2.262-2.39.9-3.409l-1.125-.814-1.147-.836-1.146-.836-1.137-.826-1.146-.814-1.158-.814-1.125-.804-1.147-.815-1.146-.783-1.137-.782-1.136-.782-1.137-.761-1.125-.772-.676-.461a1.884 1.884 0 0 0-1.618-.236c-1.533.472-1.844 2.476-.536 3.376l.675.461zm30.775 22.714l1.157.954 1.158.933 1.146.943 1.158.943 1.157.954 1.169.943 1.136.976 1.168.954 1.147.986 1.168.976 1.769 1.512c1.062.9 2.69.396 3.065-.965a1.879 1.879 0 0 0-.578-1.908l-1.779-1.522-1.18-.997-1.157-.975-1.169-.986-1.157-.965-1.157-.976-1.18-.954-1.157-.943-1.179-.954-1.158-.933-1.137-.943-1.189-.932c-.429-.354-.997-.472-1.533-.375-1.597.322-2.101 2.347-.858 3.355l1.17.899zm28.952 24.965l1.168 1.083 1.158 1.082 1.146 1.083 1.158 1.083 1.157 1.093 1.169 1.094 1.157 1.104 1.169 1.126 1.146 1.114 1.683 1.63a1.88 1.88 0 0 0 1.329.546c1.684-.021 2.552-2.08 1.351-3.269l-1.704-1.641-1.179-1.114-1.147-1.126-1.179-1.114-1.158-1.115-1.168-1.093-1.157-1.093-1.169-1.093-1.168-1.083-1.169-1.083-1.554-1.426c-1.051-.964-2.744-.461-3.13.911a1.862 1.862 0 0 0 .535 1.876l1.556 1.425zm26.593 26.058l1.147 1.19 1.146 1.2 1.137 1.212 1.157 1.211 1.137 1.222 1.157 1.222 1.137 1.222 1.146 1.232 1.126 1.233 1.404 1.511c.9.997 2.508.74 3.108-.45a1.925 1.925 0 0 0-.29-2.111l-1.404-1.522-1.168-1.254-1.137-1.243-1.146-1.223-1.146-1.232-1.158-1.222-1.146-1.211-1.147-1.222-1.157-1.2-1.158-1.211-1.189-1.244c-.986-.997-2.669-.611-3.173.697-.226.686-.086 1.425.418 1.95l1.199 1.243zm25.019 27.473l1.126 1.308 1.114 1.318 1.115 1.308 1.125 1.329 1.094 1.318 1.136 1.329 1.104 1.319 1.093 1.329 1.104 1.318 1.275 1.554c.279.365.665.579 1.126.665 1.736.289 2.904-1.715 1.812-3.055l-1.276-1.576-1.104-1.34-1.115-1.329-1.104-1.34-1.115-1.329-1.125-1.318-1.126-1.34-1.114-1.318-1.137-1.318-1.125-1.319-.814-.954c-.396-.418-.9-.654-1.469-.654-1.598.011-2.487 1.919-1.437 3.13l.837.965zm23.775 29.167l1.019 1.329 1.018 1.351 1.019 1.318 1.008 1.34.985 1.318 1.008 1.34.997 1.34.976 1.318.997 1.34.954 1.33.525.708c.782 1.083 2.379 1.018 3.119-.075.439-.675.429-1.522-.043-2.154l-.515-.74-.976-1.329-.986-1.34-1.018-1.34-.976-1.34-.997-1.34-1.029-1.34-1.008-1.34-1.008-1.34-1.028-1.351-1.029-1.329-.782-.997c-.289-.407-.75-.654-1.254-.729-1.673-.204-2.776 1.704-1.748 3.044l.772 1.008zm22.2 30.624l.911 1.329.89 1.319.89 1.329.879 1.329.89 1.339.868 1.319.879 1.329.857 1.308.857 1.329.848 1.329.761 1.19a1.903 1.903 0 0 0 3.194.01c.407-.643.429-1.414.032-2.068l-.794-1.222-.847-1.308-.857-1.34-.879-1.34-.868-1.319-.879-1.34-.89-1.329-.89-1.34-.89-1.318-.911-1.34-.922-1.34-.825-1.232c-.611-.9-1.854-1.083-2.733-.429a1.9 1.9 0 0 0-.407 2.572l.836 1.234zm20.108 31.644l.762 1.297.761 1.318.772 1.297.739 1.297.739 1.297.74 1.308.739 1.286.729 1.297.719 1.298.729 1.286.708 1.286.482.879c.364.687 1.082 1.04 1.864.965 1.351-.15 2.102-1.608 1.469-2.809l-.482-.89-.729-1.275-.708-1.308-.739-1.308-.729-1.309-.739-1.297-.75-1.308-.729-1.308-.771-1.308-.761-1.318-.761-1.308-.772-1.318-.707-1.18a1.89 1.89 0 0 0-1.887-.91c-1.351.214-2.058 1.693-1.383 2.861l.695 1.182zm18.073 33.368l.621 1.254.601 1.265.611 1.254.6 1.244.601 1.243.568 1.254.589 1.233.558 1.243.579 1.243.558 1.232.546 1.233.783 1.758c.557 1.222 2.133 1.501 3.098.536a1.89 1.89 0 0 0 .386-2.091l-.247-.536-.535-1.232-.568-1.254-.568-1.243-.578-1.243-.579-1.255-.579-1.265-.578-1.243-.611-1.276-.601-1.254-.601-1.265-.61-1.265-.622-1.265-.782-1.565a1.904 1.904 0 0 0-1.147-.965c-1.586-.45-2.979 1.189-2.262 2.69l.769 1.535zm14.921 34.226l.439 1.169.45 1.189.439 1.158.407 1.179.429 1.158.396 1.168.429 1.168.386 1.158.397 1.146.385 1.147.365 1.146.386 1.137.364 1.136.386 1.254c.418 1.309 2.048 1.737 3.077.826a1.923 1.923 0 0 0 .557-1.983l-.407-1.275-.364-1.147-.375-1.168-.386-1.146-.386-1.158-.408-1.179-.407-1.169-.396-1.179-.418-1.179-.429-1.169-.429-1.179-.439-1.201-.429-1.179-.461-1.212-.525-1.403a1.848 1.848 0 0 0-1.189-1.104c-1.501-.504-2.938.997-2.358 2.477l.514 1.414zm10.751 34.902l.247 1.071.235 1.062.235 1.039.215 1.051.215 1.051.214 1.04.204 1.039.192 1.029.193 1.019.182 1.029.183 1.018.15 1.019.171.997.161 1.008.139.996.129 1.008.14.986.064.429c.171 1.318 1.607 2.037 2.776 1.404.707-.386 1.093-1.126.986-1.919l-.054-.461-.15-1.018-.14-.997-.139-1.04-.172-1.019-.161-1.028-.182-1.029-.172-1.04-.192-1.04-.172-1.05-.203-1.051-.215-1.062-.215-1.061-.214-1.062-.226-1.062-.235-1.093-.236-1.062-.257-1.094-.118-.504c-.161-.643-.579-1.125-1.189-1.35-1.426-.493-2.83.771-2.509 2.229l.12.518zm4.459 37.034l-.021.857-.021.868-.042.868-.043.857-.033.837-.053.867-.064.826-.054.836-.075.825-.086.814-.096.804-.086.815-.107.814-.107.782-.107.783-.106.804-.15.771-.14.761-.129.762-.16.761-.15.75-.182.794c-.118.535-.032 1.082.289 1.521.943 1.34 3.012.922 3.408-.664l.193-.879.161-.805.161-.804.139-.804.15-.793.139-.814.129-.826.118-.836.118-.814.096-.836.097-.848.097-.846.086-.857.075-.858.075-.868.053-.868.054-.89.054-.857.032-.9.032-.89.021-.9.032-.9v-.536c0-.525-.193-.997-.547-1.361-1.179-1.168-3.227-.332-3.259 1.34l.009.537zm-9.111 35.416l-.396.558-.354.547-.375.524-.386.547-.387.525-.396.515-.407.514-.439.516-.396.482-.429.492-.439.493-.45.461-.439.482-.472.45-.461.45-.461.461-.493.439-.493.429-.482.418-.514.43-.494.396-.514.396-.525.386-.525.396-.547.386-.525.354-.492.322a1.864 1.864 0 0 0-.772 1.007c-.568 1.704 1.297 3.13 2.819 2.177l.525-.375.6-.387.59-.418.579-.418.567-.418.547-.439.568-.439.547-.472.547-.472.525-.461.535-.482.504-.482.515-.504.504-.493.493-.536.482-.503.472-.536.482-.536.45-.547.45-.546.45-.558.429-.558.439-.59.407-.568.396-.6.418-.601.396-.589.354-.568c.279-.418.376-.933.269-1.437-.354-1.63-2.53-2.005-3.452-.59l-.344.57zm-29.917 19.027l-.707.129-.707.107-.729.106-.729.086-.718.086-.75.075-.729.074-.75.064-.75.064-.762.032-.761.043-.761.021-.783.021-.782.011-.771.021-.771-.011-.815-.011-.804-.021-.782-.021-.825-.043-.804-.043-.815-.054-.911-.054a1.898 1.898 0 0 0-1.286.354c-1.415 1.051-.814 3.281.922 3.42l.997.064.836.054.836.054.857.031.836.021.837.033.836.01h.836l.814-.01.815-.021.814-.021.804-.021.814-.043.782-.043.805-.054.793-.075.771-.064.782-.086.782-.085.762-.118.761-.097.761-.118.762-.128.707-.129c1.608-.3 2.154-2.294.911-3.323a1.818 1.818 0 0 0-1.521-.407l-.71.12zM376 473.941l-.922-.247-.922-.235-.932-.258-.933-.268-.954-.268-.933-.279-.943-.268-.943-.29-.954-.3-.954-.311-.976-.312-.953-.321-.965-.321-.965-.343-.976-.333-.986-.364-.986-.354-.879-.332a1.929 1.929 0 0 0-1.404.031c-1.575.687-1.554 2.905.032 3.517l.922.343.986.364 1.008.343.996.365.986.343.997.321.976.332.986.322.965.321.975.311.977.3.964.269.965.289.965.279.954.268.954.257.943.258.964.246.772.172c1.372.343 2.615-.857 2.337-2.24-.15-.697-.676-1.222-1.372-1.426l-.772-.181zm-35.437-13.259l-1.05-.504-1.029-.504-1.05-.515-1.062-.547-1.051-.515-1.05-.535-1.062-.558-1.072-.547-1.062-.558-1.061-.568-1.062-.578-1.062-.558-1.071-.601-1.094-.6-.718-.396a1.907 1.907 0 0 0-2.809 1.351c-.14.804.236 1.575.922 1.95l.75.418 1.083.601 1.083.59 1.082.601 1.094.578 1.072.558 1.071.579 1.072.547 1.071.557 1.072.558 1.072.536 1.071.525 1.072.535 1.05.504 1.062.504 1.115.536a1.902 1.902 0 0 0 1.511.064c1.555-.601 1.651-2.766.161-3.474l-1.121-.534zm-32.318-18.094l-1.126-.719-1.114-.696-1.115-.729-1.114-.729-1.115-.729-1.115-.762-1.125-.739-1.115-.751-1.136-.761-1.126-.761-1.114-.771-1.126-.783-1.575-1.082a1.8 1.8 0 0 0-1.404-.301c-1.65.29-2.165 2.434-.793 3.398l1.575 1.104 1.137.783 1.146.793 1.126.761 1.146.762 1.137.771 1.114.75 1.137.751 1.136.729 1.115.729 1.125.74 1.137.718 1.114.708.654.429c.536.343 1.2.386 1.801.118 1.372-.633 1.522-2.53.246-3.323l-.633-.408zm-31.664-22.264l-1.158-.879-1.136-.9-1.158-.879-1.146-.911-1.147-.911-1.146-.911-1.159-.933-1.147-.922-1.157-.943-1.169-.933-1.715-1.404c-1.051-.868-2.604-.386-3.022.911-.226.739-.012 1.512.6 2.004l1.726 1.426 1.169.954 1.157.943 1.169.933 1.157.922 1.157.922 1.169.933 1.147.9 1.157.9 1.168.911 1.147.879 1.512 1.158c.385.311.846.418 1.34.375 1.704-.193 2.336-2.337.975-3.388l-1.49-1.157zm-28.878-23.926l-1.179-1.039-1.126-1.04-1.179-1.04-1.158-1.05-1.158-1.051-1.168-1.062-1.158-1.082-1.157-1.062-1.169-1.071-1.157-1.094-.954-.89a1.866 1.866 0 0 0-2.647.075c-.75.739-.74 1.982.043 2.69l.954.911 1.158 1.082 1.168 1.083 1.179 1.083 1.157 1.082 1.158 1.062 1.179 1.05 1.168 1.062 1.168 1.062 1.168 1.039 1.158 1.04 1.361 1.19c1.029.91 2.658.45 3.076-.879.215-.719 0-1.458-.547-1.962l-1.338-1.189zm-27.805-26.314l-1.147-1.18-1.168-1.168-1.137-1.169-1.157-1.189-1.158-1.179-1.157-1.201-1.126-1.189-1.146-1.189-1.158-1.212-1.007-1.071c-.408-.439-.986-.633-1.587-.579-1.543.192-2.251 2.047-1.189 3.184l1.029 1.082 1.147 1.212 1.147 1.2 1.158 1.2 1.168 1.201 1.147 1.189 1.157 1.201 1.169 1.179 1.146 1.179 1.158 1.169 1.769 1.758c.343.343.825.546 1.318.546 1.683.012 2.562-2.025 1.372-3.236l-1.748-1.738z" fill="#EFDFA5"/><path d="M319.586 354.67c.407-.269.675-.654.804-1.072.418.086.89.011 1.297-.258l.836-.525 1.469-.922 1.458-.932 1.447-.933 1.457-.933 1.458-.933 1.447-.943 1.426-.933 1.447-.922 1.425-.965 2.005-1.329a1.892 1.892 0 0 0 .461-2.701c-.61-.814-1.736-1.029-2.562-.472l-1.994 1.329-1.436.943-1.416.943-1.436.922-1.447.922-1.437.933-1.447.922-1.437.943-1.447.922-1.468.911-.836.524a1.86 1.86 0 0 0-.794 1.04 1.904 1.904 0 0 0-1.297.269l-1.469.922-1.489.9-1.447.9-1.479.911-1.479.89-1.469.879-1.469.868-1.469.89-1.457.868-1.479.868-1.404.825a1.858 1.858 0 0 0-.911 1.876c.182 1.351 1.672 2.09 2.84 1.415l1.404-.836 1.479-.879 1.479-.868 1.469-.879 1.49-.891 1.479-.889 1.469-.9 1.49-.891 1.479-.91 1.479-.912 1.481-.907zm117.471-81.231a11.046 11.046 0 0 1-8.383 1.361 11.38 11.38 0 0 1-3.891-1.758l-.997.965-1.04 1.019-1.05 1.019-1.051 1.018-1.062 1.008-1.071 1.019-1.083 1.019-1.082 1.008-1.083 1.018-1.083 1.029-1.093 1.008-.933.836c-1.094.997-2.83.407-3.141-1.061a1.904 1.904 0 0 1 .568-1.748l.922-.847 1.082-1.008 1.104-1.019 1.062-.985 1.083-1.008 1.061-1.008 1.062-1.019 1.051-1.018 1.062-.997 1.039-1.008 1.029-1.008.954-.942c-.129-.172-.235-.354-.343-.525a11.221 11.221 0 0 1-1.437-8.447 10.971 10.971 0 0 1 4.92-6.914 10.951 10.951 0 0 1 8.382-1.361c1.297.311 2.541.857 3.666 1.608l.504-.525.922-1.008.911-.997.9-1.007.9-.997.89-.997.89-.997.88-1.007.879-.997.867-.997.858-1.008.847-.986.847-.986.396-.472a1.9 1.9 0 0 1 1.501-.675c1.607.097 2.422 1.93 1.404 3.141l-.408.472-.857 1.019-.857.986-.868 1.018-.879.997-.879 1.019-.89 1.008-.9 1.007-.9 1.018-.9 1.008-.922 1.008-.922 1.018-.933 1.007-.525.579c.183.236.354.493.515.761a11.17 11.17 0 0 1 1.426 8.415c-.634 2.785-2.328 5.314-4.921 6.921zm-7.547-2.325a7.322 7.322 0 0 0 5.531-.911c1.715-1.062 2.819-2.733 3.248-4.545a7.44 7.44 0 0 0-.943-5.574 7.39 7.39 0 0 0-4.577-3.291 7.212 7.212 0 0 0-5.53.89 7.286 7.286 0 0 0-3.237 4.566c-.419 1.833-.129 3.816.942 5.563 1.082 1.715 2.734 2.863 4.566 3.302zm-78.549 58.14a1.895 1.895 0 0 0-.772 1.791c.193 1.414 1.812 2.144 2.98 1.329l1.897-1.361 1.351-.976 1.361-.965 1.351-.976 1.351-.965 1.329-.986 1.329-.976 1.318-.975 1.329-.986 1.318-.986 1.351-1.008a1.889 1.889 0 0 0 .696-1.918c-.3-1.34-1.896-1.951-3.001-1.126l-1.329.997-1.308.986-1.308.975-1.318.965-1.329.976-1.319.976-1.34.965-1.34.965-1.34.975-1.361.955-1.896 1.349zm30.057-22.617a1.924 1.924 0 0 0-.665 1.822c.268 1.415 1.929 2.059 3.044 1.158l1.576-1.254 1.232-1.008 1.232-.997 1.223-1.008 1.222-.997 1.211-.996 1.212-1.008 1.211-1.019 1.2-.997 1.19-1.008 1.179-1.007.9-.761c1.19-1.019.665-3.002-.879-3.323a1.943 1.943 0 0 0-1.597.418l-.9.761-1.169.986-1.189 1.008-1.18.996-1.2.997-1.201 1.008-1.211.986-1.211 1.008-1.211.985-1.223.997-1.232.997-1.564 1.256zm79.481-79.589c-1.05 1.415.236 3.397 1.962 3.001.439-.096.793-.343 1.082-.696l.482-.665.74-.986.729-.976.719-.986.718-.986.708-.986.696-.986.696-.975.697-.986.664-.975.676-.976.676-.976.653-.986.644-.954.643-.964.783-1.201c.91-1.426-.376-3.27-2.026-2.894a1.866 1.866 0 0 0-1.157.825l-.762 1.136-.633.965-.643.954-.633.965-.664.964-.676.965-.653.954-.676.975-.686.965-.708.965-.686.976-.708.965-.707.964-.718.976-.74.986-.492.653zm20.335-31.461c-.762 1.447.535 3.119 2.133 2.755a1.888 1.888 0 0 0 1.222-.954l.278-.504.482-.943.493-.922.461-.943.461-.911.45-.943.472-.9.439-.932.439-.901.418-.943.418-.89.419-.922.406-.911.376-.9.396-.9.364-.911.386-.9.354-.9.354-.879.149-.407c.633-1.64-1.114-3.194-2.658-2.379-.407.214-.696.557-.879.986l-.14.375-.343.857-.343.89-.375.879-.365.868-.375.89-.386.879-.386.89-.396.89-.418.879-.407.9-.429.9-.439.911-.439.9-.43.9-.471.9-.472.922-.472.9-.472.911-.275.513zm13.131-34.783c-.301 1.565 1.328 2.798 2.732 2.058.515-.268.857-.729.965-1.297l.183-.954.161-.825.149-.814.118-.836.118-.815.106-.815.107-.814.086-.793.097-.804.075-.804.074-.793.054-.804.043-.793.054-.783.021-.783.032-.771v-.793l.011-.761v-.771l-.021-.771-.032-.762-.032-.761-.043-.75-.053-.74-.033-.311c-.16-1.726-2.326-2.38-3.376-1.019-.3.386-.429.847-.386 1.34l.032.247.042.696.033.708.043.707.021.708.01.729v2.176l-.021.74-.031.74-.043.739-.043.761-.054.75-.064.739-.086.772-.064.75-.097.771-.096.772-.097.783-.14.761-.117.793-.118.793-.15.783-.17.921zm-3.731-35.802c.879 1.597 3.248 1.211 3.526-.579a1.92 1.92 0 0 0-.193-1.211l-.085-.129-.344-.622-.343-.621-.364-.611-.365-.622-.396-.6-.386-.579-.396-.6-.418-.579-.407-.59-.429-.558-.439-.557-.45-.568-.439-.547-.482-.536-.461-.536-.482-.525-.493-.525-.493-.503-.504-.515-.514-.482-.516-.493-.546-.493-.536-.472-.558-.472-.546-.482-.568-.439-.568-.45-.321-.246c-1.394-1.04-3.302.171-2.98 1.865.086.482.343.879.729 1.168l.289.204.515.418.525.429.515.429.504.429.503.45.482.439.482.45.482.472.45.45.45.472.45.472.45.493.429.471.429.504.407.504.418.503.387.515.396.515.375.525.386.525.364.557.365.536.343.547.343.568.321.557.321.557.312.579.074.139zm-28.009-22.189a1.873 1.873 0 0 0 1.994-.504c.922-1.029.493-2.637-.825-3.087l-.687-.257-.793-.246-.782-.258-.782-.246-.805-.236-.814-.225-.814-.226-.814-.225-.826-.204-.846-.214-.815-.193-.868-.203-.847-.172-.857-.182-.857-.171-.879-.172-.88-.161-.889-.15-.891-.15-.889-.139-.912-.139-.922-.129-.321-.054c-1.607-.193-2.69 1.598-1.79 2.948.322.472.783.75 1.34.825l.301.043.879.128.89.139.847.118.857.139.868.15.857.161.836.161.825.161.826.183.836.182.804.182.804.182.805.214.793.193.782.214.782.215.771.214.762.226.761.246.761.236.729.246.695.237zm-36.692-5.338a1.89 1.89 0 0 0 1.854-1.726 1.923 1.923 0 0 0-1.919-2.079h-1.018l-1.019.011-1.04.011-1.051.032-1.061.021-1.051.032-1.082.043-1.072.054-1.062.042-1.071.064-1.094.064-1.094.064-1.104.075-1.094.085-1.093.085-1.126.097-1.104.097-.805.075c-1.715.171-2.305 2.326-.943 3.397.387.29.848.429 1.33.375l.782-.075 1.114-.085 1.094-.097 1.082-.086 1.072-.075 1.083-.085 1.071-.053 1.062-.075 1.062-.064 1.061-.043 1.029-.043 1.062-.043 1.028-.032 1.029-.021 1.029-.01 1.019-.021 1.028-.011h1.012zm-37.303 3.43a1.869 1.869 0 0 0 1.479-1.297c.418-1.361-.739-2.69-2.133-2.455l-1.243.204-1.201.225-1.211.226-1.2.214-1.212.226-1.243.235-1.222.247-1.223.257-1.232.257-1.232.257-1.254.257-1.244.268-1.243.289-1.254.279-1.426.322c-.75.193-1.286.793-1.426 1.565-.171 1.34 1.04 2.444 2.337 2.133l1.372-.311 1.254-.279 1.233-.268 1.243-.29 1.211-.246 1.222-.268 1.233-.247 1.211-.247 1.211-.236 1.201-.236 1.2-.225 1.201-.236 1.2-.214 1.179-.193 1.212-.213zm-36.573 8.425c1.522-.45 1.844-2.454.536-3.376a1.869 1.869 0 0 0-1.607-.269l-.783.215-1.318.396-1.318.375-1.318.396-1.318.397-1.329.396-1.34.408-1.329.418-1.351.429-1.341.418-1.328.429-1.352.45-1.35.439-1.318.439c-1.619.536-1.727 2.776-.193 3.516.45.215.943.247 1.404.086l1.308-.439 1.34-.429 1.34-.439 1.34-.429 1.329-.418 1.308-.418 1.34-.418 1.318-.418 1.319-.386 1.307-.397 1.318-.386 1.309-.375 1.297-.386.78-.224zm-35.662 11.866c1.501-.568 1.629-2.658.225-3.451-.493-.258-1.071-.322-1.586-.118l-1.404.525-1.383.547-1.394.525-1.404.546-1.394.547-1.415.547-1.404.568-1.404.568-1.414.568-1.404.568-1.415.589-2.165.911a1.847 1.847 0 0 0-1.147 1.619c-.054 1.426 1.34 2.401 2.637 1.865l2.134-.89 1.414-.568 1.394-.579 1.404-.558 1.394-.568 1.394-.558 1.404-.547 1.383-.525 1.383-.546 1.394-.536 1.383-.547 1.39-.502zm-34.709 14.471a1.92 1.92 0 0 0 1.104-1.629c.043-1.426-1.404-2.412-2.701-1.833l-1.919.879-1.447.675-1.446.675-1.447.675-1.447.686-1.447.675-1.447.708-1.447.697-1.447.708-1.457.707-2.123 1.04c-1.521.771-1.329 2.98.279 3.516.472.15.965.118 1.415-.096l2.111-1.04 1.437-.708 1.458-.707 1.437-.697 1.446-.686 1.437-.675 1.437-.675 1.426-.676 1.437-.675 1.447-.676 1.904-.868zm-33.711 16.668a1.92 1.92 0 0 0 .997-1.726c-.064-1.404-1.565-2.283-2.798-1.64l-1.522.804-1.469.793-1.469.804-1.468.793-1.468.814-1.479.804-1.469.804-1.468.826-1.468.836-1.49.825-1.801 1.019a1.937 1.937 0 0 0-.933 1.918c.215 1.319 1.651 2.047 2.819 1.394l1.801-1.018 1.447-.826 1.479-.814 1.458-.815 1.469-.814 1.469-.804 1.468-.804 1.458-.793 1.458-.782 1.469-.793 1.51-.805zm-32.693 18.598c1.372-.847 1.114-2.926-.408-3.43a1.92 1.92 0 0 0-1.586.172l-1.083.653-1.468.911-1.49.9-1.458.911-1.49.922-1.479.911-1.469.933-1.458.922-1.479.933-1.447.922-1.705 1.104c-1.468.954-.954 3.216.783 3.473.46.064.89-.021 1.275-.279l1.693-1.083 1.458-.922 1.458-.933 1.447-.911 1.479-.922 1.458-.911 1.469-.911 1.468-.911 1.468-.911 1.479-.89 1.085-.653zm-31.643 20.356c1.393-.943.932-3.109-.729-3.431-.504-.085-1.008.011-1.415.3l-1.05.718-1.383.943-1.394.965-1.383.965-1.372.964-1.394.954-1.361.975-1.34.976-1.372.954-1.351.976-1.34.976-.718.525c-.653.472-.911 1.265-.707 2.047.375 1.275 1.875 1.812 2.947 1.029l.708-.515 1.329-.965 1.361-.954 1.329-.965 1.361-.964 1.361-.965 1.361-.964 1.372-.954 1.372-.954 1.394-.965 1.361-.954 1.053-.717zm-30.421 22.113c.804-.611.964-1.747.396-2.573-.622-.89-1.865-1.104-2.723-.429l-1.168.922-1.286.975-1.275.997-1.254.986-1.265.997-1.254.997-1.243.997-1.244.997-1.244 1.008-1.232.997-1.211.997-1.115.911c-.579.504-.814 1.244-.611 1.983a1.898 1.898 0 0 0 3.034.965l1.104-.89 1.211-1.008 1.222-.997 1.222-.986 1.244-.997 1.233-.976 1.254-.997 1.254-1.008 1.254-.975 1.254-.986 1.275-.986 1.168-.921zm-29.017 23.925a1.913 1.913 0 0 0-.439-3.141 1.9 1.9 0 0 0-2.08.279l-1.029.9-1.146 1.018-1.126 1.019-1.136 1.008-1.126 1.007-1.104 1.029-1.104.997-1.104 1.019-1.104 1.018-1.104 1.018-1.072 1.019-1.094 1.008-.729.696c-.965.943-.708 2.552.525 3.109.729.322 1.521.193 2.079-.333l.729-.696 1.072-1.008 1.083-1.008 1.082-.997 1.094-1.007 1.104-1.008 1.104-1.008 1.093-1.008 1.115-1.007 1.126-.997 1.125-1.019 1.137-1.008 1.029-.899zM96.51 263.182c1.147-1.189.322-3.184-1.329-3.237-.536 0-1.007.183-1.394.568l-1.211 1.243-.986 1.019-.976 1.008-.964 1.019-.954 1.008-.965 1.018-.933 1.008-.943 1.029-.943 1.008-.933 1.007-.911 1.008-.933 1.019-.89 1.018-.396.43c-.515.6-.632 1.414-.278 2.111a1.897 1.897 0 0 0 3.108.439l1.286-1.437.9-.997.911-1.008.922-.996.922-1.008.933-.997.943-1.019.954-.996.943-1.019.975-.986.954-1.019.975-.996 1.213-1.245zm-25.007 28.019c.997-1.232.096-3.098-1.49-3.087a1.884 1.884 0 0 0-1.469.687l-.933 1.179-.814 1.008-.771.997-.783.996-.772.997-.761.976-.772.997-.74.997-.739.986-.75.996-.729.986-.718.976-.719.986-.696.986-.783 1.082c-.429.611-.45 1.404-.075 2.059.696 1.179 2.379 1.286 3.162.161l.761-1.072.708-.965.708-.976.707-.976.719-.965.729-.965.729-.985.75-.986.75-.986.75-.965.761-.997.771-.975.793-.986.783-.976.933-1.19zm-21.631 30.625c.75-1.286-.204-2.927-1.705-2.884-.654.032-1.2.354-1.543.911l-.268.461-.579.943-.557.943-.558.965-.547.943-.525.943-.525.943-.525.943-.525.932-.493.943-.504.934-.482.932-.482.933-.482.933-.472.922-.45.922-.439.922-.45.922-.193.418c-.354.719-.214 1.544.343 2.133.922.955 2.508.719 3.076-.482l.193-.396.429-.889.44-.912.439-.91.461-.912.471-.889.45-.934.482-.9.504-.932.493-.922.504-.9.515-.943.515-.912.525-.932.536-.933.536-.911.557-.943.558-.943.277-.462zm-15.747 33.819c.493-1.607-1.2-3.033-2.68-2.272a1.834 1.834 0 0 0-.943 1.126l-.161.493-.257.879-.257.857-.236.857-.236.857-.225.847-.225.857-.214.848-.193.847-.204.836-.172.847-.171.836-.172.825-.161.837-.139.814-.15.836-.129.804-.118.825-.107.814-.107.805-.097.814-.085.814-.096.89c-.107 1.618 1.736 2.658 3.033 1.683.439-.321.697-.804.75-1.361l.075-.804.086-.771.086-.761.096-.772.107-.771.107-.771.129-.794.139-.782.139-.782.161-.804.161-.804.161-.794.161-.804.193-.814.204-.805.193-.814.214-.825.225-.814.225-.825.236-.848.236-.824.247-.837.171-.495zm-2.551 36.348c-.439-1.618-2.637-1.929-3.473-.482a1.894 1.894 0 0 0-.182 1.447l.161.644.193.686.204.697.204.696.215.665.235.686.236.665.247.675.268.665.268.664.289.644.279.653.311.633.3.653.333.633.322.633.343.621.354.622.354.601.386.61.375.611.396.611.396.578.407.579.418.579.429.579.45.546.397.515c1.147 1.372 3.355.59 3.344-1.2a1.964 1.964 0 0 0-.418-1.2l-.375-.451-.396-.514-.397-.515-.375-.536-.386-.536-.364-.536-.354-.535-.343-.558-.343-.547-.321-.568-.332-.567-.311-.568-.3-.579-.3-.579-.279-.59-.279-.578-.268-.601-.257-.601-.235-.6-.247-.611-.235-.621-.215-.601-.203-.622-.204-.633-.193-.632-.182-.633-.193-.643-.154-.654zm22.114 27.634a1.862 1.862 0 0 0-1.565-.086c-1.511.611-1.597 2.68-.161 3.452l.632.332.675.364.696.344.687.332.696.343.719.321.718.322.718.3.729.311.75.301.729.289.761.29.761.268.772.278.761.258.782.257.793.258.793.257.804.226.793.235.826.235.825.204.804.214.965.236c1.704.396 2.969-1.522 1.94-2.959a1.882 1.882 0 0 0-1.115-.739l-.89-.226-.783-.214-.793-.192-.782-.215-.761-.225-.772-.226-.772-.235-.739-.236-.74-.258-.739-.246-.718-.268-.729-.258-.707-.268-.708-.268-.707-.279-.686-.3-.675-.3-.686-.301-.665-.3-.665-.312-.664-.311-.633-.332-.643-.332-.631-.341zm35.694 9.165a1.9 1.9 0 0 0-1.747.933c-.686 1.232.129 2.766 1.533 2.862l.793.063.986.055.986.053.975.054.997.032 1.008.032.997.021 1.008.043 1.018.011h3.077l1.039-.021h1.04l1.051-.021 1.061-.032 1.061-.021 1.051-.043.975-.054c1.705-.074 2.412-2.187 1.125-3.322a1.961 1.961 0 0 0-1.34-.461l-.933.043-1.05.031-1.05.033-1.029.031-1.019.032-1.029.011H98.943l-.997-.011-.997-.011-.975-.043-.986-.021-.976-.031-.976-.033-.965-.042-.943-.054-.954-.064-.792-.055zm37.356-1.489c-1.629.225-2.208 2.314-.911 3.365.396.332.922.493 1.437.407l1.232-.161 1.179-.16 1.147-.161 1.179-.171 1.19-.183 1.179-.183 1.19-.192 1.19-.193 1.189-.204 1.201-.203 1.201-.203 1.2-.226 1.233-.235 1.211-.226 1.211-.235.836-.172a1.846 1.846 0 0 0 1.479-1.565 1.914 1.914 0 0 0-2.262-2.154l-.804.172-1.222.225-1.19.236-1.2.203-1.19.226-1.179.214-1.179.204-1.201.193-1.168.192-1.158.192-1.168.172-1.168.183-1.158.161-1.146.171-1.147.15-1.233.161zm36.831-7.226c-1.469.364-1.908 2.22-.793 3.227.482.45 1.125.611 1.758.461l.739-.214 1.286-.332 1.297-.333 1.287-.354 1.297-.354 1.308-.343 1.308-.376 1.297-.354 1.318-.386 1.318-.375 1.318-.387 1.329-.396 1.319-.396 1.833-.557c1.608-.493 1.779-2.701.3-3.495a1.93 1.93 0 0 0-1.437-.14l-1.822.558-1.318.386-1.297.396-1.308.376-1.308.375-1.297.364-1.297.375-1.297.365-1.275.354-1.297.354-1.276.343-1.276.321-1.286.344-.728.193zM199.5 409.09c-1.619.579-1.683 2.819-.118 3.527.45.192.922.225 1.394.054l1.79-.633 1.372-.493 1.383-.493 1.383-.515 1.372-.504 1.382-.525 1.394-.514 1.383-.525 1.404-.525 1.393-.547 1.394-.547 2.091-.814c.718-.278 1.168-.965 1.179-1.736a1.889 1.889 0 0 0-2.594-1.79l-2.069.804-1.383.536-1.393.536-1.383.525-1.383.525-1.372.525-1.372.503-1.372.515-1.372.482-1.361.504-1.372.482-1.77.643zm34.976-13.795a1.92 1.92 0 0 0-1.136 1.693c0 1.394 1.404 2.337 2.669 1.79l1.651-.718 1.425-.633 1.437-.621 1.426-.644 1.437-.653 1.447-.654 1.437-.654 1.436-.664 1.458-.665 1.437-.664 1.437-.687 1.189-.568c.965-.439 1.351-1.607.879-2.551s-1.575-1.329-2.508-.89l-1.19.558-1.436.686-1.436.665-1.426.653-1.437.665-1.437.653-1.415.644-1.436.644-1.437.632-1.404.633-1.437.622-1.63.728zm33.991-16.078c-1.501.771-1.297 2.979.311 3.494.472.149.986.117 1.426-.107l2.219-1.125 1.469-.772 1.446-.75 1.479-.772 1.469-.782 1.458-.782 1.468-.782 1.49-.783 1.458-.793 1.458-.793 1.308-.708c1.361-.761 1.275-2.754-.15-3.408a1.93 1.93 0 0 0-1.683.054l-1.286.718-1.469.805-1.469.771-1.447.782-1.458.782-1.468.783-1.458.771-1.447.761-1.469.751-1.446.761-2.209 1.124z" fill="#62C2FF"/><path d="M375.057 30.759c0 16.314 13.217 29.67 29.393 29.67-16.176 0-29.393 13.346-29.393 29.682 0-16.336-13.216-29.682-29.37-29.682 16.154.001 29.37-13.355 29.37-29.67z" fill-rule="evenodd" clip-rule="evenodd" fill="#EFDFA5"/><path d="M42.218 213.799c0 16.314 13.217 29.66 29.392 29.66-16.175 0-29.392 13.355-29.392 29.681 0-16.325-13.216-29.681-29.37-29.681 16.153 0 29.37-13.346 29.37-29.66z" fill-rule="evenodd" clip-rule="evenodd" fill="#62C2FF"/><path d="M463.019 289.176c0 9.744 7.899 17.708 17.547 17.708-9.647 0-17.547 7.964-17.547 17.708 0-9.744-7.879-17.708-17.526-17.708 9.647 0 17.526-7.964 17.526-17.708z" fill-rule="evenodd" clip-rule="evenodd" fill="#EFDFA5"/><g><path d="M292.563 426.134c-7.921 0-19.658-7.61-23.731-11.694-3.034-3.045-5.06-6.839-6.421-11.095-.289 1.029-.601 1.93-.933 2.669-5.606 12.359-19.177 20.002-28.556 20.002-2.466 0-4.566-.547-6.249-1.629-2.401-1.533-3.773-4.052-3.773-6.925 0-3.27 1.329-5.349 2.68-6.807-6.582 4.405-14.717 6.657-20.355 6.657-4.877 0-15.05 0-15.05-7.954 0-5.135 4.32-8.254 8.125-11.009 4.771-3.44 7.89-5.992 7.89-9.915 0-7.128-.097-22.06-.161-30.518-3.58.354-8.457.676-14.16.676-34.043 0-43.938-23.411-47.657-32.232-4.931-11.716-11.094-17.44-18.812-22.436-6.678-4.298-6.914-8.778-6.464-11.062.407-2.048 1.994-5.639 8.082-6.764a31.434 31.434 0 0 1 5.864-.568c15.157 0 23.861 11.319 31.546 21.299 4.877 6.335 9.476 12.316 14.685 13.967 3.88 1.223 8.393 1.865 13.067 1.865 6.131 0 12.048-1.125 16.11-3.001 1.233-6.218 4.267-11.855 7.911-16.497-37.421-5.617-62.311-20.441-75.924-45.148l.107-.054c-3.151-3.956-5.338-10.912-6.217-14.096l-.096.043c-4.267-12.595-6.346-27.023-6.356-44.12 0-28.599 8.747-40.551 20.002-54.903-8.104-32.329 3.912-54.389 4.438-55.332a5.495 5.495 0 0 1 3.677-2.701c.375-.075 1.79-.333 4.212-.333 8.243 0 25.822 2.809 52.298 21.181 10.987-3.816 29.113-6.057 49.533-6.057 17.183 0 33.068 1.619 44.185 4.449 12.713-8.104 35.502-20.227 49.833-20.227 2.39 0 4.545.332 6.399.997a5.51 5.51 0 0 1 2.818 2.272c4.041 6.485 9.959 21.706 5.049 51.419.558.729 1.254 1.543 2.026 2.487 7.321 8.95 20.956 25.608 21.021 60.67-.29 15.457-1.887 28.342-4.856 39.489-.429 2.637-1.972 10.612-5.295 14.921-14.053 30.41-43.08 40.315-74.198 44.742 7.697 9.175 10.302 22.167 10.302 45.503 0 17.922-.15 26.508-.236 31.996-.063 3.559-.106 5.788-.063 8.457.063 4.277 4.994 7.9 8.961 10.815 3.805 2.798 7.738 5.703 6.936 10.397-.826 4.749-5.414 7.161-13.635 7.161-4.76 0-9.927-.782-13.496-2.037-2.744-.954-5.123-2.111-7.192-3.419.857 1.575 1.437 3.301 1.437 5.273-.004 5.46-3.745 9.126-9.308 9.126z" fill="#62C2FF"/><path d="M128.292 242.14c-4.191-12.37-6.056-26.519-6.067-42.362 0-28.084 8.757-38.675 20.517-53.66-8.994-32.007 3.226-53.896 3.226-53.896s18.898-3.923 54.625 21.652c19.359-8.296 70.993-8.961 95.411-1.844 14.985-9.883 42.404-23.946 53.467-20.001 3.001 4.824 9.454 18.844 3.934 49.737 3.741 6.753 23.261 21.181 23.336 61.956-.289 15.028-1.876 27.741-4.781 38.46.558 0-3.709 13.313-4.716 13.292-12.949 28.428-39.532 39.039-82.462 43.434 13.924 8.769 17.911 19.745 17.911 49.459 0 29.713-.407 33.7-.3 40.539.15 11.212 16.593 16.594 15.971 20.195-.621 3.602-13.752 3.044-19.895.879-17.418-6.046-15.682-20.538-15.682-20.538l-.568-39.726s1.189-21.373-6.731-21.373v65.021c0 14.128 9.915 18.416 9.915 23.646 0 8.982-18.083-.857-23.668-6.453-8.489-8.532-7.514-26.604-7.31-40.883.193-13.827-.128-44.012-.128-44.012l-5.767.128s2.369 65.944-3.034 77.971c-6.989 15.414-28.084 20.753-28.084 13.699 0-4.716 5.199-3.216 8.071-13.806 2.444-9.025 1.608-76.256 1.608-76.256s-6.753 4.009-6.753 16.593c0 5.745-.161 38.696-.161 48.472 0 12.327-17.515 19.359-25.93 19.359-4.255 0-9.562-.215-9.562-2.466 0-5.702 16.015-9.047 16.015-20.924 0-10.269-.214-36.724-.214-36.724s-8.083 1.394-19.595 1.394c-29.049 0-38.235-18.522-42.608-28.878-5.681-13.506-13.056-19.852-20.892-24.91-4.813-3.109-5.917-6.797-.354-7.825 25.705-4.845 32.275 29.112 49.447 34.537 12.252 3.858 28.009 2.187 35.845-2.873 1.04-10.376 8.522-19.358 14.761-24.075-43.67-4.181-69.557-19.337-82.987-43.712-.172.002-6.325-13.226-5.811-13.226z" fill="#48B0F5"/><path d="M355.892 91.354c1.715 0 3.248.214 4.556.675 3.001 4.824 9.454 18.844 3.934 49.737 3.741 6.753 23.261 21.181 23.336 61.956-.29 15.028-1.876 27.741-4.781 38.46.558 0-3.698 13.292-4.717 13.292-12.948 28.428-39.531 39.039-82.462 43.434 13.925 8.769 17.912 19.745 17.912 49.459 0 29.713-.407 33.7-.3 40.539.149 11.212 16.593 16.594 15.971 20.195-.321 1.854-3.944 2.604-8.221 2.604-4.053 0-8.684-.676-11.674-1.726-17.418-6.046-15.682-20.538-15.682-20.538l-.568-39.726s1.189-21.373-6.731-21.373v65.021c0 14.128 9.915 18.416 9.915 23.646 0 2.604-1.522 3.634-3.816 3.634-5.627 0-15.885-6.11-19.852-10.087-8.489-8.532-7.514-26.604-7.311-40.883.193-13.827-.129-44.012-.129-44.012l-5.767.128s2.369 65.944-3.033 77.971c-4.941 10.901-16.947 16.765-23.55 16.765-2.723 0-4.534-.996-4.534-3.065 0-4.716 5.199-3.216 8.071-13.806 2.444-9.025 1.608-76.256 1.608-76.256s-6.753 4.009-6.753 16.593c0 5.745-.161 38.696-.161 48.472 0 12.327-17.515 19.359-25.93 19.359-4.256 0-9.562-.215-9.562-2.466 0-5.702 16.015-9.047 16.015-20.924 0-10.269-.215-36.724-.215-36.724s-8.082 1.394-19.595 1.394c-29.048 0-38.234-18.522-42.608-28.878-5.681-13.506-13.056-19.852-20.892-24.91-4.813-3.109-5.917-6.797-.354-7.825a26.256 26.256 0 0 1 4.867-.472c21.76 0 28.545 29.949 44.581 35.009 4.609 1.458 9.723 2.122 14.718 2.122 8.275 0 16.239-1.833 21.127-4.995 1.04-10.376 8.521-19.358 14.76-24.075-43.669-4.181-69.556-19.337-82.987-43.712-.171 0-6.324-13.228-5.81-13.228-4.191-12.37-6.056-26.519-6.066-42.362 0-28.084 8.757-38.675 20.516-53.66-8.994-32.007 3.226-53.896 3.226-53.896s1.04-.214 3.098-.214c6.7 0 24.193 2.294 51.527 21.867 10.473-4.48 30.367-6.742 50.305-6.742 16.937 0 33.894 1.629 45.106 4.898 13.217-8.712 36.102-20.675 48.912-20.675m0-10.976c-16.711 0-40.872 13.742-50.776 19.841-11.384-2.594-26.776-4.063-43.241-4.063-9.797 0-32.458.59-48.665 5.488-26.476-17.836-44.516-20.612-53.167-20.612-2.873 0-4.684.311-5.328.45a10.969 10.969 0 0 0-7.353 5.392c-.557.997-12.927 23.71-5.595 56.704-10.741 13.849-19.541 27.216-19.541 56.2.011 17.719 2.187 32.726 6.646 45.889l.097-.032c.976 4.052 3.065 10.826 6.774 15.521 13.484 24.117 36.928 39.264 71.325 46.006-1.404 2.637-2.583 5.445-3.43 8.404-2.916.922-6.903 1.607-11.458 1.607-4.116 0-8.061-.557-11.416-1.607-3.559-1.126-7.847-6.699-11.995-12.081-7.61-9.894-18.029-23.442-35.887-23.442-2.251 0-4.566.225-6.893.664-9.862 1.822-12.005 8.951-12.434 11.084-.579 2.938-.879 10.451 8.865 16.743 7.064 4.566 12.327 9.497 16.722 19.948 3.73 8.822 15.039 35.599 52.727 35.599 3.163 0 6.1-.097 8.715-.247.054 8.351.118 18.941.118 24.601 0 1.404-3.248 3.752-5.617 5.467-4.384 3.173-10.397 7.515-10.397 15.457 0 8.918 6.914 13.441 20.538 13.441 3.634 0 8.039-.761 12.53-2.283 1.33 5.853 6.485 10.987 15.168 10.987 9.368 0 21.695-5.938 29.402-16.229a29.064 29.064 0 0 0 2.604 3.022c4.642 4.652 17.505 13.324 27.634 13.324 7.268 0 12.842-4.417 14.375-10.912 3.977 1.222 9.304 1.972 14.182 1.972 14.803 0 18.286-7.331 19.037-11.715 1.393-8.04-4.921-12.682-9.09-15.747-1.662-1.222-6.7-4.931-6.722-6.453-.042-2.647 0-4.823.064-8.307.086-5.51.236-14.117.236-32.093 0-17.709-1.298-30.979-6.614-41.408 29.178-5.221 55.697-16.433 69.621-45.729 3.934-5.273 5.52-13.163 6.066-16.86 3.045-11.513 4.674-24.751 4.975-40.433-.064-37.249-15.061-55.568-22.264-64.368-.15-.193-.312-.375-.461-.568 4.255-28.352-.922-44.292-6.196-52.771a11 11 0 0 0-5.638-4.534c-2.455-.878-5.221-1.317-8.243-1.317z" fill="#234AA8"/></g></g><metadata><rdf:RDF xmlns:rdf="http://www.w3.org/1999/02/22-rdf-syntax-ns#" xmlns:rdfs="http://www.w3.org/2000/01/rdf-schema#" xmlns:dc="http://purl.org/dc/elements/1.1/"><rdf:Description about="https://iconscout.com/legal#licenses" dc:title="social,media,github" dc:description="social,media,github" dc:publisher="Iconscout" dc:date="2018-05-29" dc:format="image/svg+xml" dc:language="en"><dc:creator><rdf:Bag><rdf:li>Ibrandify Icons</rdf:li></rdf:Bag></dc:creator></rdf:Description></rdf:RDF></metadata></svg>